<svg width="32" height="59" viewBox="0 0 32 59" fill="none" xmlns="http://www.w3.org/2000/svg">
<path d="M11.2897 58.6354C13.1657 58.6354 14.6865 57.1924 14.6865 55.4125C14.6865 53.6325 13.1657 52.1895 11.2897 52.1895C9.41364 52.1895 7.89282 53.6325 7.89282 55.4125C7.89282 57.1924 9.41364 58.6354 11.2897 58.6354Z" fill="#EE24FF"/>
<path d="M17.6844 0.0929146C13.5009 -0.345132 9.30134 0.777426 6.00948 3.21364C2.71762 5.64985 0.603146 9.20014 0.131245 13.0835C-0.851442 21.1702 3.73814 38.7307 12.1059 46C16.0458 32.0726 29.8522 23.8117 31.679 16.3868C33.631 8.45314 26.3961 1.0051 17.6844 0.0929146Z" fill="#EE24FF"/>
<path d="M16.079 18.0308C18.9432 18.0308 21.2652 15.8278 21.2652 13.1102C21.2652 10.3926 18.9432 8.18954 16.079 8.18954C13.2147 8.18954 10.8928 10.3926 10.8928 13.1102C10.8928 15.8278 13.2147 18.0308 16.079 18.0308Z" fill="white"/>
</svg>
